<?xml version="1.0" standalone="no"?>
<!DOCTYPE svg PUBLIC "-//W3C//DTD SVG 20010904//EN"
 "http://www.w3.org/TR/2001/REC-SVG-20010904/DTD/svg10.dtd">
<svg version="1.0" xmlns="http://www.w3.org/2000/svg"
 width="480.000000pt" height="480.000000pt" viewBox="0 0 480.000000 480.000000"
 preserveAspectRatio="xMidYMid meet">
<metadata>
Created by potrace 1.14, written by Peter Selinger 2001-2017
</metadata>
<g transform="translate(0.000000,480.000000) scale(0.100000,-0.100000)"
fill="#000000" stroke="none">
<path d="M0 2400 l0 -2400 2400 0 2400 0 0 2400 0 2400 -2400 0 -2400 0 0
-2400z m720 1675 l0 -95 -190 0 -190 0 0 95 0 95 190 0 190 0 0 -95z m3620
-570 l0 -95 -95 0 -95 0 0 95 0 95 95 0 95 0 0 -95z m-390 -190 l0 -95 -95 0
-95 0 0 95 0 95 95 0 95 0 0 -95z m770 0 l0 -95 -95 0 -95 0 0 95 0 95 95 0
95 0 0 -95z m-3430 -570 l0 -95 -95 0 -95 0 0 95 0 95 95 0 95 0 0 -95z m760
-190 l0 -95 95 0 95 0 0 95 0 95 285 0 285 0 0 -95 0 -95 190 0 190 0 0 -190
0 -190 95 0 95 0 0 -380 0 -380 -190 0 -190 0 0 95 0 95 -190 0 -190 0 0 -95
0 -95 -190 0 -190 0 0 190 0 190 -95 0 -95 0 0 -95 0 -95 -285 0 -285 0 0 95
0 95 190 0 190 0 0 95 0 95 95 0 95 0 0 95 0 95 -95 0 -95 0 0 95 0 95 95 0
95 0 0 95 0 95 -95 0 -95 0 0 95 0 95 95 0 95 0 0 -95z m-570 -475 l0 -190
-95 0 -95 0 0 -95 0 -95 -190 0 -190 0 0 190 0 190 190 0 190 0 0 95 0 95 95
0 95 0 0 -190z m2280 95 l0 -95 -95 0 -95 0 0 95 0 95 95 0 95 0 0 -95z
m-3040 -570 l0 -95 -95 0 -95 0 0 -95 0 -95 -95 0 -95 0 0 95 0 95 95 0 95 0
0 95 0 95 95 0 95 0 0 -95z m0 -570 l0 -95 -95 0 -95 0 0 95 0 95 95 0 95 0 0
-95z m570 -575 l0 -100 -95 0 -95 0 0 100 0 100 95 0 95 0 0 -100z"/>
<path d="M2240 2365 l0 -95 95 0 95 0 0 95 0 95 -95 0 -95 0 0 -95z"/>
<path d="M2620 2365 l0 -95 95 0 95 0 0 95 0 95 -95 0 -95 0 0 -95z"/>
<path d="M3000 1605 l0 -95 95 0 95 0 0 95 0 95 -95 0 -95 0 0 -95z"/>
</g>
</svg>
